# Blender v2.77 (sub 0) OBJ File: ''
# www.blender.org
mtllib Cilindro.mtl
o Cylinder
v 0.000000 -0.500000 -1.000000
v 0.000000 0.500000 -1.000000
v 0.500000 -0.500000 -0.866025
v 0.500000 0.500000 -0.866025
v 0.866025 -0.500000 -0.500000
v 0.866025 0.500000 -0.500000
v 1.000000 -0.500000 0.000000
v 1.000000 0.500000 0.000000
v 0.866025 -0.500000 0.500000
v 0.866025 0.500000 0.500000
v 0.500000 -0.500000 0.866025
v 0.500000 0.500000 0.866025
v 0.000000 -0.500000 1.000000
v 0.000000 0.500000 1.000000
v -0.500000 -0.500000 0.866026
v -0.500000 0.500000 0.866026
v -0.866025 -0.500000 0.500000
v -0.866025 0.500000 0.500000
v -1.000000 -0.500000 0.000000
v -1.000000 0.500000 0.000000
v -0.866026 -0.500000 -0.499999
v -0.866026 0.500000 -0.499999
v -0.500001 -0.500000 -0.866025
v -0.500001 0.500000 -0.866025
v 0.000000 0.000000 -1.000000
v 0.500000 0.000000 -0.866025
v 0.866025 0.000000 -0.500000
v 1.000000 0.000000 0.000000
v 0.866025 0.000000 0.500000
v 0.500000 0.000000 0.866025
v 0.000000 0.000000 1.000000
v -0.500000 0.000000 0.866026
v -0.866025 0.000000 0.500000
v -1.000000 0.000000 0.000000
v -0.866026 0.000000 -0.499999
v -0.500001 0.000000 -0.866025
v 0.300000 0.500000 -0.519615
v -0.000000 0.500000 -0.600000
v 0.519615 0.500000 -0.300000
v 0.600000 0.500000 0.000000
v 0.519615 0.500000 0.300000
v 0.300000 0.500000 0.519615
v 0.000000 0.500000 0.600000
v -0.300000 0.500000 0.519615
v -0.519615 0.500000 0.300000
v -0.600000 0.500000 0.000000
v -0.519615 0.500000 -0.300000
v -0.300000 0.500000 -0.519615
v 0.150000 0.500000 -0.259808
v -0.000000 0.500000 -0.300000
v 0.259808 0.500000 -0.150000
v 0.300000 0.500000 0.000000
v 0.259808 0.500000 0.150000
v 0.150000 0.500000 0.259808
v 0.000000 0.500000 0.300000
v -0.150000 0.500000 0.259808
v -0.259808 0.500000 0.150000
v -0.300000 0.500000 0.000000
v -0.259808 0.500000 -0.150000
v -0.150000 0.500000 -0.259807
v -0.000000 -0.500000 -0.600000
v 0.300000 -0.500000 -0.519615
v 0.519615 -0.500000 -0.300000
v 0.600000 -0.500000 0.000000
v 0.519615 -0.500000 0.300000
v 0.300000 -0.500000 0.519615
v 0.000000 -0.500000 0.600000
v -0.300000 -0.500000 0.519615
v -0.519615 -0.500000 0.300000
v -0.600000 -0.500000 0.000000
v -0.519615 -0.500000 -0.300000
v -0.300000 -0.500000 -0.519615
v -0.000000 -0.500000 -0.300000
v 0.150000 -0.500000 -0.259808
v 0.259808 -0.500000 -0.150000
v 0.300000 -0.500000 0.000000
v 0.259808 -0.500000 0.150000
v 0.150000 -0.500000 0.259808
v 0.000000 -0.500000 0.300000
v -0.150000 -0.500000 0.259808
v -0.259808 -0.500000 0.150000
v -0.300000 -0.500000 0.000000
v -0.259808 -0.500000 -0.150000
v -0.150000 -0.500000 -0.259807
v 0.500000 -0.238095 -0.866025
v 0.866025 -0.238095 -0.500000
v 1.000000 -0.238095 0.000000
v 0.866025 -0.238095 0.500000
v 0.500000 -0.238095 0.866025
v 0.000000 -0.238095 1.000000
v -0.500000 -0.238095 0.866026
v -0.866025 -0.238095 0.500000
v -1.000000 -0.238095 0.000000
v -0.866026 -0.238095 -0.499999
v -0.500001 -0.238095 -0.866025
v 0.000000 -0.238095 -1.000000
v 0.000000 0.250000 -1.000000
v 0.500000 0.250000 -0.866025
v 0.866025 0.250000 -0.500000
v 1.000000 0.250000 0.000000
v 0.866025 0.250000 0.500000
v 0.500000 0.250000 0.866025
v 0.000000 0.250000 1.000000
v -0.500000 0.250000 0.866026
v -0.866025 0.250000 0.500000
v -1.000000 0.250000 0.000000
v -0.866026 0.250000 -0.499999
v -0.500001 0.250000 -0.866025
vn 0.0000 0.0000 -1.0000
vn 0.0000 0.6532 -0.7571
vn 0.3786 0.6532 -0.6557
vn 0.5000 0.0000 -0.8660
vn 0.6557 0.6532 -0.3786
vn 0.8660 0.0000 -0.5000
vn 0.7571 0.6532 0.0000
vn 1.0000 0.0000 0.0000
vn 0.6557 0.6532 0.3786
vn 0.8660 0.0000 0.5000
vn 0.3786 0.6532 0.6557
vn 0.5000 0.0000 0.8660
vn 0.0000 0.6532 0.7571
vn 0.0000 0.0000 1.0000
vn -0.3786 0.6532 0.6557
vn -0.5000 0.0000 0.8660
vn -0.6557 0.6532 0.3786
vn -0.8660 0.0000 0.5000
vn -0.7571 0.6532 0.0000
vn -1.0000 0.0000 0.0000
vn -0.6557 0.6532 -0.3786
vn -0.8660 0.0000 -0.5000
vn 0.0000 1.0000 0.0000
vn -0.3786 0.6532 -0.6557
vn -0.5000 0.0000 -0.8660
vn 0.0000 -0.6532 0.7571
vn -0.3786 -0.6532 0.6557
vn 0.0000 -1.0000 0.0000
vn 0.3786 -0.6532 0.6557
vn 0.6557 -0.6532 0.3786
vn 0.7571 -0.6532 0.0000
vn -0.3786 -0.6532 -0.6557
vn 0.0000 -0.6532 -0.7571
vn 0.3786 -0.6532 -0.6557
vn 0.6557 -0.6532 -0.3786
vn -0.6557 -0.6532 -0.3786
vn -0.7571 -0.6532 0.0000
vn -0.6557 -0.6532 0.3786
usemtl None
s 1
f 97//1 2//2 4//3 98//4
f 98//4 4//3 6//5 99//6
f 99//6 6//5 8//7 100//8
f 100//8 8//7 10//9 101//10
f 101//10 10//9 12//11 102//12
f 102//12 12//11 14//13 103//14
f 103//14 14//13 16//15 104//16
f 104//16 16//15 18//17 105//18
f 105//18 18//17 20//19 106//20
f 106//20 20//19 22//21 107//22
f 20//19 18//17 45//23 46//23
f 107//22 22//21 24//24 108//25
f 108//25 24//24 2//2 97//1
f 13//26 15//27 68//28 67//28
f 95//25 36//25 25//1 96//1
f 94//22 35//22 36//25 95//25
f 93//20 34//20 35//22 94//22
f 92//18 33//18 34//20 93//20
f 91//16 32//16 33//18 92//18
f 90//14 31//14 32//16 91//16
f 89//12 30//12 31//14 90//14
f 88//10 29//10 30//12 89//12
f 87//8 28//8 29//10 88//10
f 86//6 27//6 28//8 87//8
f 85//4 26//4 27//6 86//6
f 96//1 25//1 26//4 85//4
f 48//23 47//23 59//23 60//23
f 18//17 16//15 44//23 45//23
f 16//15 14//13 43//23 44//23
f 14//13 12//11 42//23 43//23
f 12//11 10//9 41//23 42//23
f 10//9 8//7 40//23 41//23
f 2//2 24//24 48//23 38//23
f 4//3 2//2 38//23 37//23
f 8//7 6//5 39//23 40//23
f 24//24 22//21 47//23 48//23
f 6//5 4//3 37//23 39//23
f 22//21 20//19 46//23 47//23
f 49//23 50//23 60//23 59//23 58//23 57//23 56//23 55//23 54//23 53//23 52//23 51//23
f 37//23 38//23 50//23 49//23
f 45//23 44//23 56//23 57//23
f 42//23 41//23 53//23 54//23
f 38//23 48//23 60//23 50//23
f 39//23 37//23 49//23 51//23
f 46//23 45//23 57//23 58//23
f 43//23 42//23 54//23 55//23
f 40//23 39//23 51//23 52//23
f 47//23 46//23 58//23 59//23
f 44//23 43//23 55//23 56//23
f 41//23 40//23 52//23 53//23
f 64//28 65//28 77//28 76//28
f 11//29 13//26 67//28 66//28
f 9//30 11//29 66//28 65//28
f 7//31 9//30 65//28 64//28
f 23//32 1//33 61//28 72//28
f 1//33 3//34 62//28 61//28
f 5//35 7//31 64//28 63//28
f 21//36 23//32 72//28 71//28
f 3//34 5//35 63//28 62//28
f 19//37 21//36 71//28 70//28
f 17//38 19//37 70//28 69//28
f 15//27 17//38 69//28 68//28
f 73//28 74//28 75//28 76//28 77//28 78//28 79//28 80//28 81//28 82//28 83//28 84//28
f 71//28 72//28 84//28 83//28
f 61//28 62//28 74//28 73//28
f 68//28 69//28 81//28 80//28
f 65//28 66//28 78//28 77//28
f 72//28 61//28 73//28 84//28
f 62//28 63//28 75//28 74//28
f 69//28 70//28 82//28 81//28
f 66//28 67//28 79//28 78//28
f 63//28 64//28 76//28 75//28
f 70//28 71//28 83//28 82//28
f 67//28 68//28 80//28 79//28
f 1//33 96//1 85//4 3//34
f 3//34 85//4 86//6 5//35
f 5//35 86//6 87//8 7//31
f 7//31 87//8 88//10 9//30
f 9//30 88//10 89//12 11//29
f 11//29 89//12 90//14 13//26
f 13//26 90//14 91//16 15//27
f 15//27 91//16 92//18 17//38
f 17//38 92//18 93//20 19//37
f 19//37 93//20 94//22 21//36
f 21//36 94//22 95//25 23//32
f 23//32 95//25 96//1 1//33
f 36//25 108//25 97//1 25//1
f 35//22 107//22 108//25 36//25
f 34//20 106//20 107//22 35//22
f 33//18 105//18 106//20 34//20
f 32//16 104//16 105//18 33//18
f 31//14 103//14 104//16 32//16
f 30//12 102//12 103//14 31//14
f 29//10 101//10 102//12 30//12
f 28//8 100//8 101//10 29//10
f 27//6 99//6 100//8 28//8
f 26//4 98//4 99//6 27//6
f 25//1 97//1 98//4 26//4
